<?xml version="1.0" encoding="utf-8"?>
<!-- Generator: Adobe Illustrator 16.0.0, SVG Export Plug-In . SVG Version: 6.00 Build 0)  -->
<!DOCTYPE svg PUBLIC "-//W3C//DTD SVG 1.1//EN" "http://www.w3.org/Graphics/SVG/1.1/DTD/svg11.dtd">
<svg version="1.1" id="Layer_1" xmlns="http://www.w3.org/2000/svg" xmlns:xlink="http://www.w3.org/1999/xlink" x="0px" y="0px"
	 width="343.482px" height="317.984px" viewBox="0 0 343.482 317.984" enable-background="new 0 0 343.482 317.984"
	 xml:space="preserve">
<g>
	<circle fill="#3FA9F5" cx="172.056" cy="106.388" r="96.991"/>
	<text transform="matrix(1 0 0 1 10.29 267.2505)"><tspan x="0" y="0" font-family="'Oxygen-Bold'" font-size="55.9168">Gotcha </tspan><tspan x="192.016" y="0" fill="#3FA9F5" font-family="'Oxygen-Bold'" font-size="55.9168">Code</tspan></text>
	<text transform="matrix(1 0 0 1 13.5703 301.7764)" font-family="'Oxygen-Bold'" font-size="22.0218">A guide to your Digitial Life</text>
	<g>
		<g>
			<defs>
				<rect id="SVGID_1_" x="114.515" y="40.605" width="129.178" height="139.941"/>
			</defs>
			<clipPath id="SVGID_2_">
				<use xlink:href="#SVGID_1_"  overflow="visible"/>
			</clipPath>
			<path clip-path="url(#SVGID_2_)" fill="#FFFFFF" d="M128.182,124.368c-5.888,0-10.808-3.237-12.278-7.611
				c0.965,13.247,3.699,28.889,10.595,41.966l3.702,12.531l72.955-0.715c0,0-5.592-4.835,4.163-13.202
				c0,0,20.898-25.694,32.001-45.162c0,0,8.62-11.69,1.639-23.086l-0.125,0.21c-0.505-0.63-5.594-6.686-8.242-8.494
				c-2.818-2.565-9.925-6.224-9.925-6.224c-1.176-0.377-2.354-0.672-3.404-0.672c-3.658,0-10.093,5.256-8.284,14.928
				c0,0-0.463,12.487,6.686,20.311c0,0-3.279,4.162-5.802,1.766c-4.501-3.617-3.617-13.332-4.417-16.905h-6.181
				c-2.733,0-5.299-1.008-7.232-2.69c-0.169,5.55-5.803,10.006-12.741,10.006h-3.49c-3.321,0-6.308-1.008-8.537-2.647v2.312
				c0,5.677-5.718,10.218-12.74,10.218h-3.532c-3.278,0-6.265-1.01-8.537-2.649v5.593c0,5.634-5.718,10.217-12.74,10.217H128.182
				L128.182,124.368z M128.182,124.368"/>
			<path clip-path="url(#SVGID_2_)" fill="#FFFFFF" d="M194.031,79.124c0.841,3.194,3.784,5.593,7.274,5.593h5.551
				c-0.631-5.678,0.169-9.715,2.48-12.532c1.894-2.272,4.627-3.49,7.737-3.49c1.052,0,2.188,0.167,3.28,0.42
				c-0.169-5.004-0.504-9.924-1.178-12.53c0,0-2.48-20.899-23.968-14.886c-0.885,1.261-1.178,3.659-1.178,5.845V79.124
				L194.031,79.124z M194.031,79.124"/>
		</g>
		<path fill="#FFFFFF" d="M131.713,114.655c4.625,0,8.537-2.774,8.537-6.057V70.545c0-3.28-3.912-6.013-8.537-6.013h-3.531
			c-4.626,0-8.536,2.732-8.536,6.013v38.053c0,3.282,3.91,6.057,8.536,6.057H131.713L131.713,114.655z M131.713,114.655"/>
		<path fill="#FFFFFF" d="M181.29,91.613c4.668,0,8.577-2.734,8.577-6.015V47.543c0-3.279-3.909-6.055-8.577-6.055h-3.49
			c-4.667,0-8.537,2.776-8.537,6.055v38.012c0,3.323,3.87,6.057,8.537,6.057H181.29L181.29,91.613z M181.29,91.613"/>
		<path fill="#FFFFFF" d="M156.522,101.493c4.624,0,8.536-2.734,8.536-6.013V57.425c0-3.28-3.912-6.055-8.536-6.055h-3.532
			c-4.625,0-8.537,2.775-8.537,6.055V95.48c0,3.279,3.912,6.013,8.537,6.013H156.522L156.522,101.493z M156.522,101.493"/>
	</g>
	<polygon stroke="#000000" stroke-width="5" stroke-miterlimit="10" points="106.914,188.396 88.755,188.396 245.57,37.396 
		263.73,37.396 	"/>
	<path fill="#FFFFFF" d="M130.2,171.254l72.955-0.715c0,0-5.592-4.835,4.163-13.202c0,0,20.898-25.694,32.001-45.162
		c0,0,8.62-11.69,1.639-23.086l-0.125,0.21c-0.505-0.63-5.594-6.686-8.242-8.494c-2.818-2.565-9.925-6.224-9.925-6.224
		c-1.176-0.377-2.354-0.672-3.404-0.672c-3.658,0-10.093,5.256-8.284,14.928c0,0-0.463,12.487,6.686,20.311
		c0,0-3.279,4.162-5.802,1.766"/>
	<path d="M51.455,134.041L10.27,112.903V99.602l41.186-21.176v15.918l-25.03,11.935l25.03,11.941V134.041z"/>
	<path fill="#FFFFFF" d="M194.031,79.124c0.841,3.194,3.784,5.593,7.274,5.593h5.551c-0.631-5.678,0.169-9.715,2.48-12.532
		c1.894-2.272,4.627-3.49,7.737-3.49c1.052,0,2.188,0.167,3.28,0.42c-0.169-5.004-0.504-9.924-1.178-12.53
		c0,0-2.48-20.899-23.968-14.886c-0.885,1.261-1.178,3.659-1.178,5.845V79.124L194.031,79.124z M194.031,79.124"/>
	<path d="M293.566,118.22l25.03-11.941l-25.03-11.935V78.426l41.186,21.176v13.301l-41.186,21.138V118.22z"/>
</g>
</svg>
